<svg width="35" height="37" viewBox="0 0 35 37" fill="none" xmlns="http://www.w3.org/2000/svg">
<path d="M24.3367 12.7694C23.9582 12.3908 23.5088 12.0904 23.0142 11.8854C22.5195 11.6805 21.9894 11.575 21.454 11.575C20.9185 11.575 20.3884 11.6805 19.8937 11.8854C19.3991 12.0904 18.9497 12.3908 18.5712 12.7694L17.7857 13.555L17.0001 12.7694C16.2356 12.0049 15.1986 11.5754 14.1174 11.5754C13.0361 11.5754 11.9992 12.0049 11.2346 12.7694C10.4701 13.534 10.0405 14.571 10.0405 15.6522C10.0405 16.7334 10.4701 17.7704 11.2346 18.535L12.0201 19.3205L17.7857 25.086L23.5512 19.3205L24.3367 18.535C24.7154 18.1565 25.0158 17.7071 25.2208 17.2124C25.4257 16.7178 25.5312 16.1876 25.5312 15.6522C25.5312 15.1168 25.4257 14.5866 25.2208 14.092C25.0158 13.5974 24.7154 13.1479 24.3367 12.7694V12.7694Z" stroke="#6E767D" stroke-width="1.48214" stroke-linecap="round" stroke-linejoin="round"/>
</svg>
